<svg width="8681" height="2540" viewBox="0 0 8681 2540" fill="none" xmlns="http://www.w3.org/2000/svg">
<g clip-path="url(#clip0_6099_10328)">
<path fill-rule="evenodd" clip-rule="evenodd" d="M2886.26 983.008C2751.56 983.008 2650.1 1084.79 2650.1 1201.42V1322.46C2650.1 1439.09 2751.74 1540.88 2886.26 1540.88C2952.37 1540.88 2998.5 1521.44 3065.5 1473.02C3102.62 1446.16 3154.76 1454.29 3181.81 1491.22C3208.86 1528.15 3200.55 1579.93 3163.43 1606.79C3079.82 1667.22 2999.92 1706.28 2886.26 1706.28C2667.95 1706.45 2483.58 1538.76 2483.58 1322.64V1201.6C2483.58 985.482 2667.95 817.608 2886.26 817.608C2999.92 817.608 3079.82 856.838 3163.43 917.095C3200.55 943.955 3208.86 995.731 3181.81 1032.66C3154.76 1069.59 3102.62 1077.72 3065.5 1050.86C2998.5 1002.45 2952.37 983.008 2886.26 983.008ZM3703.98 983.008C3572.99 983.008 3466.93 1088.5 3466.93 1218.74V1307.27C3466.93 1437.5 3573.17 1543 3703.98 1543C3834.79 1543 3939.26 1438.03 3939.26 1307.27V1218.74C3939.26 1087.8 3834.26 983.008 3703.98 983.008ZM3300.42 1218.74C3300.42 997.144 3481.08 817.608 3703.98 817.608C3926.88 817.608 4105.77 997.851 4105.77 1218.91V1307.44C4105.77 1528.33 3927.59 1708.75 3703.98 1708.75C3480.37 1708.75 3300.42 1529.04 3300.42 1307.44V1218.91V1218.74ZM4657.64 987.425C4526.47 987.425 4420.59 1092.74 4420.59 1222.09C4420.59 1351.45 4526.47 1456.76 4657.64 1456.76C4788.8 1456.76 4892.91 1352.15 4892.91 1222.09C4892.91 1092.04 4788.27 987.425 4657.64 987.425ZM4254.08 1222.09C4254.08 1000.86 4435.09 822.026 4657.64 822.026C4752.38 822.026 4839 854.364 4907.41 908.437L4969.81 846.412C5002.33 814.074 5055.01 814.074 5087.53 846.412C5120.06 878.75 5120.06 931.055 5087.53 963.393L5013.82 1036.55C5042.99 1092.04 5059.43 1155.3 5059.43 1222.09C5059.43 1442.63 4881.07 1622.16 4657.64 1622.16C4655.34 1622.16 4653.22 1622.16 4650.92 1622.16H4474.15C4444.45 1622.16 4420.59 1646.02 4420.59 1675.53C4420.59 1705.04 4444.63 1728.89 4474.15 1728.89H4702.36H4775.36C4835.46 1728.89 4897.51 1745.51 4947.53 1784.73C4999.15 1825.38 5031.85 1885.46 5037.68 1959.32C5047.94 2090.09 4955.66 2179.33 4880.72 2208.13L4672.13 2299.66C4630.06 2318.22 4580.92 2299.31 4562.36 2257.43C4543.8 2215.73 4562.89 2166.78 4604.78 2148.4L4815.49 2055.98C4817.08 2055.28 4818.67 2054.57 4820.26 2054.04C4829.1 2050.86 4844.12 2041.14 4855.97 2025.41C4866.75 2010.74 4873.29 1993.25 4871.52 1972.4C4869.23 1942.18 4857.38 1925.22 4844.12 1914.79C4829.28 1903.13 4805.77 1894.65 4775.19 1894.65H4477.69C4476.8 1894.65 4475.92 1894.65 4475.04 1894.65H4473.97C4352.36 1894.65 4253.9 1796.75 4253.9 1675.88C4253.9 1597.6 4295.26 1528.86 4357.49 1490.16C4293.14 1419.3 4253.9 1325.47 4253.9 1222.45L4254.08 1222.09ZM5605.81 987.425C5475.36 987.425 5369.65 1092.57 5369.65 1222.09V1625.7C5369.65 1671.46 5332.35 1708.4 5286.4 1708.4C5240.44 1708.4 5203.14 1671.29 5203.14 1625.7V1222.09C5203.14 1001.03 5383.44 822.026 5605.81 822.026C5828.19 822.026 6008.49 1001.21 6008.49 1222.09V1625.7C6008.49 1671.46 5971.19 1708.4 5925.23 1708.4C5879.27 1708.4 5841.97 1671.29 5841.97 1625.7V1222.09C5841.97 1092.39 5736.27 987.425 5605.81 987.425ZM6587.75 987.602C6453.76 987.602 6346.11 1094.51 6346.11 1225.1V1310.27C6346.11 1440.68 6453.59 1547.77 6587.75 1547.77C6634.24 1547.77 6677.37 1534.87 6713.61 1512.78C6752.85 1488.92 6804.11 1501.12 6828.15 1539.99C6852.2 1578.87 6839.82 1629.94 6800.76 1653.79C6738.89 1691.61 6665.88 1713.17 6587.93 1713.17C6363.26 1713.17 6179.77 1533.46 6179.77 1310.27V1225.1C6179.77 1001.92 6363.08 822.203 6587.93 822.203C6780.25 822.203 6940.05 953.497 6982.83 1130.21L6999.62 1199.3L6644.85 1342.79C6602.25 1359.93 6553.64 1339.61 6536.31 1297.37C6518.99 1254.96 6539.49 1206.72 6582.1 1189.58L6794.39 1103.7C6752.85 1034.25 6676.31 987.602 6587.93 987.602H6587.75ZM7500.4 987.602C7366.23 987.602 7258.76 1094.51 7258.76 1225.1V1310.27C7258.76 1440.68 7366.23 1547.77 7500.4 1547.77C7546.89 1547.77 7590.02 1534.87 7626.26 1512.78C7644.46 1501.65 7661.08 1488.22 7675.75 1472.67C7707.22 1439.27 7759.89 1437.68 7793.48 1468.96C7827.06 1500.23 7828.65 1552.54 7797.37 1585.94C7772.62 1612.09 7744.51 1634.89 7713.58 1653.79C7651.53 1691.61 7578.71 1713.17 7500.58 1713.17C7275.91 1713.17 7092.42 1533.46 7092.42 1310.27V1225.1C7092.42 1001.92 7275.73 822.203 7500.58 822.203C7692.72 822.203 7852.7 953.497 7895.47 1130.21L7912.27 1199.3L7557.49 1342.79C7514.89 1359.93 7466.28 1339.61 7448.96 1297.37C7431.64 1254.96 7452.14 1206.72 7494.74 1189.58L7707.04 1103.7C7665.5 1034.25 7588.96 987.602 7500.58 987.602H7500.4Z" fill="black"/>
</g>
<g clip-path="url(#clip1_6099_10328)">
<path d="M1514.86 2090.35C1427.39 2090.35 1356.25 2014.59 1356.25 1921.47V632.789C1356.25 609.821 1341.17 593.817 1327.65 593.817C1314.13 593.817 1299.05 609.821 1299.05 632.789V1921.47C1299.05 2014.59 1227.91 2090.35 1140.45 2090.35C1052.98 2090.35 981.846 2014.59 981.846 1921.47V913.389C981.846 890.421 966.766 874.417 953.246 874.417C939.725 874.417 924.645 890.421 924.645 913.389V1547.34C924.645 1640.45 853.508 1716.22 766.042 1716.22C678.577 1716.22 607.439 1640.45 607.439 1547.34V1240.76C607.439 1147.64 683.257 1071.88 776.442 1071.88C782.786 1071.88 788.819 1072.81 794.643 1074.47V913.389C794.643 820.271 865.78 744.509 953.246 744.509C1040.71 744.509 1111.85 820.271 1111.85 913.389V1921.47C1111.85 1944.44 1126.93 1960.44 1140.45 1960.44C1153.97 1960.44 1169.05 1944.44 1169.05 1921.47V632.789C1169.05 539.671 1240.19 463.909 1327.65 463.909C1415.12 463.909 1486.26 539.671 1486.26 632.789V1921.47C1486.26 1944.44 1501.34 1960.44 1514.86 1960.44C1528.38 1960.44 1543.46 1944.44 1543.46 1921.47V913.389C1543.46 820.271 1614.59 744.509 1702.06 744.509C1789.52 744.509 1860.66 820.271 1860.66 913.389V1074.47C1866.49 1072.81 1872.52 1071.88 1878.86 1071.88C1972.05 1071.88 2047.87 1147.64 2047.87 1240.76V1547.34C2047.87 1640.45 1976.73 1716.22 1889.26 1716.22C1801.8 1716.22 1730.66 1640.45 1730.66 1547.34V913.389C1730.66 890.421 1715.58 874.417 1702.06 874.417C1688.54 874.417 1673.46 890.421 1673.46 913.389V1921.47C1673.46 2014.59 1602.32 2090.35 1514.86 2090.35ZM1860.66 1199.19V1547.34C1860.66 1570.3 1875.74 1586.31 1889.26 1586.31C1902.78 1586.31 1917.86 1570.3 1917.86 1547.34V1240.76C1917.86 1219.66 1899.97 1201.78 1878.86 1201.78C1872.52 1201.78 1866.49 1200.85 1860.66 1199.19ZM794.643 1199.19C788.819 1200.85 782.786 1201.78 776.442 1201.78C755.33 1201.78 737.442 1219.66 737.442 1240.76V1547.34C737.442 1570.3 752.522 1586.31 766.042 1586.31C779.562 1586.31 794.643 1570.3 794.643 1547.34V1199.19Z" fill="black"/>
</g>
<defs>
<clipPath id="clip0_6099_10328">
<rect width="5428.51" height="1489.12" fill="white" transform="translate(2483.58 817.608)"/>
</clipPath>
<clipPath id="clip1_6099_10328">
<rect width="1440.43" height="1626.44" fill="white" transform="translate(607.439 463.909)"/>
</clipPath>
</defs>
</svg>
