<svg width="291" height="184" viewBox="0 0 291 184" fill="none" xmlns="http://www.w3.org/2000/svg">
<path d="M254.938 2.69531L255.294 67.2412L255.611 72.0225H290.873V110.705L286.092 111.578L255.796 111.021L254.391 119.835L255.363 146.516L250.898 147.683L241.327 147.327L240.67 181.99H216.797L216.037 177.209L218.783 180.795L216.88 176.014L216.041 148.595L215.587 148.141L215.132 147.687L205.409 147.156L205.265 150.913L204.93 180.042L203.046 178.878L204.402 182.414L194.054 183.936L183.072 182.961L180.308 181.252V147.925L129.507 147.672L111.047 147.327L110.383 181.99L88.8672 183.405L86.4912 181.288L86.1162 164.061L85.8789 147.158L74.5234 147.399L74.8818 178.995L73.917 178.399L72.9541 177.804L74.125 182.284L66.1562 183.425L50.6172 183.186L49.4219 147.327H36.2734V111.468L2.02734 111.317L0 108.037L0.0546875 73.7725L4.06738 71.625L25.5156 71.6914L36.2734 71.4248L36.0068 3.89062L37.9834 0.0205078L253.261 0L254.938 2.69531ZM73.8604 34.3701V70.2295H88.2041V34.3701H73.8604ZM202.954 70.2295H217.298V34.3711H202.954V70.2295Z" fill="#D77857"/>
</svg>
