<svg width="2540" height="2540" viewBox="0 0 2540 2540" fill="none" xmlns="http://www.w3.org/2000/svg">
<rect width="2539.97" height="2539.97" fill="#F4F4F4"/>
<g clip-path="url(#clip0_8349_19819)">
<path d="M1457.42 2083.03C1369.95 2083.03 1298.81 2007.27 1298.81 1914.15V625.471C1298.81 602.504 1283.73 586.499 1270.21 586.499C1256.69 586.499 1241.61 602.504 1241.61 625.471V1914.15C1241.61 2007.27 1170.48 2083.03 1083.01 2083.03C995.544 2083.03 924.407 2007.27 924.407 1914.15V906.072C924.407 883.104 909.326 867.099 895.806 867.099C882.286 867.099 867.206 883.104 867.206 906.072V1540.02C867.206 1633.14 796.068 1708.9 708.603 1708.9C621.137 1708.9 550 1633.14 550 1540.02V1233.44C550 1140.32 625.817 1064.56 719.003 1064.56C725.347 1064.56 731.379 1065.49 737.203 1067.16V906.072C737.203 812.954 808.341 737.192 895.806 737.192C983.272 737.192 1054.41 812.954 1054.41 906.072V1914.15C1054.41 1937.12 1069.49 1953.13 1083.01 1953.13C1096.53 1953.13 1111.61 1937.12 1111.61 1914.15V625.471C1111.61 532.354 1182.75 456.592 1270.21 456.592C1357.68 456.592 1428.82 532.354 1428.82 625.471V1914.15C1428.82 1937.12 1443.9 1953.13 1457.42 1953.13C1470.94 1953.13 1486.02 1937.12 1486.02 1914.15V906.072C1486.02 812.954 1557.15 737.192 1644.62 737.192C1732.09 737.192 1803.22 812.954 1803.22 906.072V1067.16C1809.05 1065.49 1815.08 1064.56 1821.42 1064.56C1914.61 1064.56 1990.43 1140.32 1990.43 1233.44V1540.02C1990.43 1633.14 1919.29 1708.9 1831.82 1708.9C1744.36 1708.9 1673.22 1633.14 1673.22 1540.02V906.072C1673.22 883.104 1658.14 867.099 1644.62 867.099C1631.1 867.099 1616.02 883.104 1616.02 906.072V1914.15C1616.02 2007.27 1544.88 2083.03 1457.42 2083.03ZM1803.22 1191.87V1540.02C1803.22 1562.99 1818.3 1578.99 1831.82 1578.99C1845.34 1578.99 1860.42 1562.99 1860.42 1540.02V1233.44C1860.42 1212.34 1842.54 1194.47 1821.42 1194.47C1815.08 1194.47 1809.05 1193.53 1803.22 1191.87ZM737.203 1191.87C731.379 1193.53 725.347 1194.47 719.003 1194.47C697.891 1194.47 680.002 1212.34 680.002 1233.44V1540.02C680.002 1562.99 695.083 1578.99 708.603 1578.99C722.123 1578.99 737.203 1562.99 737.203 1540.02V1191.87Z" fill="#5C10F4"/>
</g>
<defs>
<clipPath id="clip0_8349_19819">
<rect width="1440.43" height="1626.44" fill="white" transform="translate(550 456.592)"/>
</clipPath>
</defs>
</svg>
