<?xml version="1.0" standalone="no"?>
<!DOCTYPE svg PUBLIC "-//W3C//DTD SVG 20010904//EN"
 "http://www.w3.org/TR/2001/REC-SVG-20010904/DTD/svg10.dtd">
<svg version="1.0" xmlns="http://www.w3.org/2000/svg"
 width="500.000000pt" height="500.000000pt" viewBox="45 45 410 410"
 preserveAspectRatio="xMidYMid meet">

<g transform="translate(0.000000,500.000000) scale(0.100000,-0.100000)"
fill="#000000" stroke="none">
<path d="M2355 4031 c-362 -67 -654 -206 -878 -420 -232 -222 -341 -615 -231
-833 43 -86 128 -155 223 -183 l24 -7 -25 33 c-14 19 -33 50 -43 69 -16 31
-11 29 46 -28 l63 -62 -17 -191 c-42 -458 -76 -644 -129 -705 -26 -30 -36 -34
-78 -34 -56 0 -104 33 -126 87 -18 42 -18 135 0 178 21 50 1 43 -34 -12 -38
-59 -50 -102 -50 -174 0 -148 91 -253 220 -253 85 0 188 64 241 150 32 53 34
33 4 -35 -50 -110 -150 -181 -237 -167 -104 17 -189 90 -225 193 l-23 68 4
-73 c6 -85 36 -161 86 -210 39 -39 121 -88 170 -102 31 -8 37 -15 48 -56 22
-83 96 -134 195 -134 55 0 101 23 152 75 25 26 45 45 45 43 0 -3 -11 -37 -25
-77 -27 -82 -54 -129 -103 -183 l-34 -38 176 0 c158 0 181 2 216 20 39 20 52
16 28 -8 -9 -9 -9 -12 0 -12 6 0 16 9 22 20 14 26 34 26 27 0 -5 -19 0 -20 72
-20 l77 0 58 67 c31 36 69 75 83 86 l25 20 -7 -22 c-7 -22 -7 -22 25 -6 18 9
57 33 88 52 75 48 276 162 280 159 1 -2 -24 -31 -57 -64 -33 -34 -78 -85 -99
-114 -22 -29 -52 -64 -67 -78 -15 -14 -40 -42 -57 -62 l-30 -38 39 0 c38 0 39
2 72 68 77 157 163 241 297 292 79 29 87 24 24 -15 -64 -41 -123 -97 -151
-143 -12 -17 -25 -30 -30 -26 -11 7 -55 -87 -64 -138 -7 -37 -6 -38 21 -38 24
0 32 8 47 40 10 22 69 92 130 155 138 141 168 156 306 158 144 3 169 -8 276
-116 53 -55 102 -116 120 -150 43 -82 70 -74 45 13 -27 93 -138 201 -272 266
-40 19 -64 33 -53 30 11 -2 38 -7 60 -11 118 -20 237 -140 275 -277 11 -41 23
-64 34 -66 13 -3 16 5 16 38 0 23 4 49 9 59 5 9 50 41 99 70 49 29 108 72 130
94 164 169 188 439 53 607 -21 26 -28 13 -11 -20 5 -10 15 -51 21 -92 14 -94
-6 -193 -57 -295 -38 -76 -130 -195 -165 -214 -12 -6 -19 -7 -16 -2 3 4 25 38
50 74 118 177 135 409 51 731 -109 421 -140 549 -190 798 -59 292 -89 396
-158 565 -72 173 -145 281 -266 391 -216 197 -561 291 -865 235z m60 -63 c164
-35 346 -201 452 -413 40 -79 88 -216 104 -295 12 -61 11 -63 -11 -80 -29 -22
-22 -32 40 -66 65 -35 58 -43 -8 -10 -61 31 -75 61 -42 86 18 14 21 23 16 45
-7 27 -7 27 -69 20 -34 -3 -67 -11 -74 -17 -20 -17 -16 -55 7 -61 30 -8 26
-59 -6 -94 -20 -22 -23 -24 -15 -6 6 12 16 25 21 28 17 11 11 42 -12 57 -16
11 -27 39 -44 116 -46 206 -128 358 -260 481 -131 123 -286 181 -443 168 l-66
-6 74 25 c134 44 212 49 336 22z m937 -407 c-2 -34 -8 -59 -13 -55 -12 7 -11
-12 2 -39 9 -19 8 -19 -9 3 l-20 24 -7 -34 c-3 -20 -2 -49 4 -65 9 -25 8 -27
-2 -11 -21 34 -69 82 -63 64 16 -48 16 -51 0 -23 -23 41 -21 40 -44 20 -19
-17 -22 -17 -76 4 -31 12 -59 19 -62 16 -3 -3 4 -27 16 -53 21 -43 21 -45 3
-22 -11 14 -21 19 -21 12 0 -8 -15 -1 -37 17 -22 18 -49 31 -65 31 -19 0 -28
5 -28 16 0 12 9 15 38 12 37 -3 37 -3 34 32 l-3 35 21 -23 c11 -13 42 -30 69
-37 42 -11 53 -11 70 2 12 8 21 25 21 38 0 27 16 41 43 37 22 -4 22 11 0 46
-16 25 -15 25 18 -5 19 -18 43 -33 53 -33 16 0 18 7 14 57 l-5 57 26 -31 c23
-27 26 -38 23 -92z m-835 59 l28 22 23 -29 c12 -15 35 -49 50 -75 20 -35 32
-46 44 -42 12 3 22 -4 32 -25 21 -39 20 -39 -9 -33 -18 3 -39 25 -70 74 -47
72 -65 79 -65 25 0 -48 -10 -76 -25 -71 -7 3 -20 -2 -29 -12 -13 -12 -20 -14
-29 -5 -6 6 -23 11 -38 11 -17 0 -34 8 -43 22 -14 19 -13 24 3 47 10 14 21 34
24 44 4 9 14 17 23 17 12 0 15 7 11 26 l-4 25 23 -22 23 -21 28 22z m-137
-174 c43 -84 51 -118 25 -96 -13 11 -15 8 -16 -16 l-1 -29 -11 28 c-15 36 -27
34 -27 -5 l0 -33 -23 35 c-21 34 -22 34 -25 11 -3 -18 -6 -21 -12 -11 -7 11
-14 11 -34 2 -19 -9 -34 -8 -68 5 -24 9 -44 17 -45 17 -1 1 -4 13 -8 28 -6 24
-3 29 29 42 20 8 43 13 50 10 8 -3 24 7 37 25 21 28 23 29 36 13 13 -15 14
-12 8 28 -3 25 -8 56 -11 70 -5 23 -3 23 26 -10 17 -19 49 -70 70 -114z m-654
27 c-18 -43 -41 -103 -51 -133 l-19 -55 -9 32 c-9 31 -10 32 -37 18 -15 -8
-30 -21 -33 -30 -7 -17 -37 -21 -37 -5 0 14 59 130 65 130 3 0 -1 -13 -10 -30
-23 -44 -19 -53 15 -35 19 10 52 49 85 100 30 47 56 85 59 85 2 0 -11 -35 -28
-77z m-287 11 c-17 -25 -55 -96 -85 -157 -55 -115 -65 -129 -40 -60 9 26 11
45 5 56 -15 25 25 93 90 154 31 29 57 53 59 53 2 0 -11 -21 -29 -46z m494 -72
c4 -62 2 -81 -6 -74 -13 11 -52 9 -137 -6 -46 -8 -58 -7 -73 6 -17 15 -17 24
4 80 l9 23 39 -21 c74 -37 123 -23 142 40 7 22 13 39 14 38 1 -2 5 -40 8 -86z
m114 43 c50 -7 51 -7 62 -50 14 -54 14 -68 1 -60 -9 5 -81 15 -127 18 -14 0
-38 81 -28 97 4 6 14 9 23 6 10 -2 40 -7 69 -11z m-537 -25 c13 20 13 4 0 -21
-9 -16 -7 -19 15 -19 14 0 25 -4 25 -8 0 -15 -49 -127 -50 -114 0 9 -7 11 -20
7 -17 -5 -21 -1 -27 26 l-6 32 -18 -34 c-11 -21 -18 -28 -19 -16 0 11 -8 17
-25 17 -32 0 -31 8 5 80 24 48 35 59 57 62 16 2 33 -3 40 -12 11 -13 14 -13
23 0z m546 -387 c30 -62 54 -115 54 -118 0 -3 -6 -5 -14 -5 -24 0 -45 39 -77
145 -36 118 -44 151 -28 115 7 -14 36 -75 65 -137z m1262 -293 c69 -229 104
-360 87 -325 -6 13 -175 584 -175 592 0 21 17 -29 88 -267z m-1468 104 c19 3
48 9 64 12 l29 7 -22 -32 c-39 -54 -20 -53 74 4 22 14 62 32 88 41 l48 16 25
-27 c15 -16 31 -25 40 -21 9 3 60 6 115 6 96 0 99 1 99 23 0 22 1 22 13 -3 10
-19 25 -27 67 -35 l55 -10 3 -134 c2 -119 -2 -160 -37 -360 -66 -377 -73 -431
-75 -563 -1 -119 -2 -128 -25 -152 -14 -14 -29 -26 -35 -26 -6 0 -22 21 -36
47 -32 61 -130 163 -155 163 -11 0 -63 -7 -115 -15 -218 -34 -239 -25 -331
140 -103 182 -131 259 -137 380 l-5 100 47 -49 c45 -47 61 -96 36 -111 -14 -9
-12 -43 4 -73 8 -15 17 -43 21 -63 3 -21 17 -46 33 -60 l27 -25 24 23 24 23
-39 -3 c-34 -2 -39 1 -42 21 -2 12 1 22 7 22 6 0 11 -7 11 -15 0 -8 5 -15 10
-15 6 0 10 8 10 19 0 22 31 32 72 24 18 -4 27 -11 24 -18 -4 -10 3 -11 27 -4
18 5 33 9 34 9 2 0 3 7 3 15 0 8 -7 15 -15 15 -9 0 -42 14 -75 30 -33 17 -73
30 -88 30 -40 0 -54 20 -47 66 6 34 2 44 -28 79 -36 42 -57 77 -57 94 0 6 18
27 41 48 61 56 85 111 81 181 -1 12 -21 40 -43 62 -23 22 -38 40 -34 40 4 0 2
7 -5 15 -13 15 3 25 65 41 31 8 31 13 0 74 -14 27 -25 52 -25 55 0 3 26 -22
57 -55 54 -58 59 -62 93 -56z m-213 -89 c10 -8 27 -21 38 -30 19 -14 18 -14
-15 -9 -26 4 -31 3 -20 -5 13 -10 13 -11 0 -11 -8 0 -24 -3 -36 -6 -15 -4 -23
1 -33 22 -11 25 -10 30 5 41 23 17 40 16 61 -2z m1401 -45 c17 -11 32 -21 32
-23 0 -2 -45 -3 -100 -3 -55 1 -100 4 -100 8 0 15 56 37 95 38 23 0 54 -9 73
-20z m-1323 -26 c25 -25 9 -29 -21 -5 -18 14 -22 21 -11 21 9 0 23 -7 32 -16z
m-50 -141 c6 -17 3 -23 -8 -23 -22 0 -37 31 -37 78 0 55 13 60 27 10 6 -24 15
-53 18 -65z m1752 -165 c-3 -8 -6 -5 -6 6 -1 11 2 17 5 13 3 -3 4 -12 1 -19z
m10 -40 c-3 -8 -6 -5 -6 6 -1 11 2 17 5 13 3 -3 4 -12 1 -19z m10 -50 c-3 -7
-5 -2 -5 12 0 14 2 19 5 13 2 -7 2 -19 0 -25z m10 -50 c-3 -7 -5 -2 -5 12 0
14 2 19 5 13 2 -7 2 -19 0 -25z m10 -50 c-3 -8 -6 -5 -6 6 -1 11 2 17 5 13 3
-3 4 -12 1 -19z m-1677 -8 c0 -5 -6 -10 -14 -10 -8 0 -18 5 -21 10 -3 6 3 10
14 10 12 0 21 -4 21 -10z m1008 -174 l8 -99 -53 -35 c-29 -19 -56 -33 -58 -30
-3 3 16 67 42 143 26 76 48 134 50 129 2 -5 7 -53 11 -108z m901 29 c42 -116
55 -207 42 -282 -14 -75 -60 -169 -105 -212 l-34 -33 24 67 c39 106 57 242 50
375 -3 63 -8 127 -12 143 -13 54 5 25 35 -58z m-864 -296 c6 -43 5 -47 -29
-77 -52 -45 -99 -43 -125 5 -20 39 -12 51 61 97 80 50 82 49 93 -25z m-335
-208 c16 -39 87 -109 155 -152 30 -19 54 -37 55 -40 1 -19 -305 -189 -341
-189 -4 0 -17 19 -28 43 -10 23 -42 78 -70 122 -27 44 -47 81 -43 82 4 1 24 4
46 8 30 5 56 23 117 81 43 41 82 74 87 74 5 0 15 -13 22 -29z m-777 -33 c-25
-113 -75 -205 -128 -238 -45 -28 -106 -27 -141 4 l-28 23 60 8 c106 13 157 54
210 170 27 59 35 68 27 33z m524 -450 c-52 -66 -86 -103 -87 -94 0 19 99 140
108 131 3 -2 -7 -19 -21 -37z"/>
<path d="M2013 2825 c-36 -15 -62 -53 -44 -64 6 -4 9 -18 6 -31 -7 -39 16 -43
46 -8 l26 32 7 -52 c7 -53 39 -92 76 -92 27 0 70 39 70 63 0 41 14 50 41 28
31 -25 20 -47 -42 -79 -45 -24 -85 -25 -189 -6 l-35 6 39 -22 c28 -16 59 -23
108 -24 37 -1 68 1 68 5 0 4 16 10 35 13 20 4 33 10 31 15 -3 4 8 15 25 25 16
9 29 22 29 27 0 5 12 21 26 34 l26 24 -28 7 c-15 4 -43 17 -62 30 -18 13 -42
26 -53 29 -11 4 -17 10 -14 15 7 12 -19 19 -47 13 -16 -3 -19 -2 -10 5 34 24
-82 30 -135 7z"/>
<path d="M1740 2370 c14 -10 27 -17 29 -15 8 8 -22 35 -38 35 -12 0 -10 -5 9
-20z"/>
</g>
</svg>
