<svg width="172" height="187" viewBox="0 0 172 187" fill="none" xmlns="http://www.w3.org/2000/svg">
<path fill-rule="evenodd" clip-rule="evenodd" d="M95.4876 0.199018L93.343 0.334537L92.4632 0.547864L91.5834 0.76099L89.5409 1.47214L87.4984 2.18309L85.6672 3.06193L83.8363 3.94097L81.9607 5.20999L80.0851 6.47902L78.8178 7.55149L77.5505 8.62396L74.236 11.8642L70.9215 15.1042L60.6857 25.1466L50.4498 35.1889L45.5756 39.9713L40.7013 44.754L35.9221 49.4325L31.1426 54.1112L21.3969 63.6649L11.651 73.2187L7.1809 77.6071L2.71104 81.9954L2.14505 82.5804L1.57886 83.1654L1.01949 83.9662L0.459931 84.7671L0.230062 85.6802L0 86.5936L0.0910496 88.0124L0.182099 89.431L0.649247 90.3666L1.11639 91.3019L2.14368 92.241L3.17117 93.1801L4.25013 93.5838L5.32909 93.9876H6.65565H7.98203L8.88532 93.7158L9.78861 93.4438L10.5755 92.865L11.3626 92.2861L15.2113 88.5276L19.0598 84.769L24.9104 78.9949L30.761 73.2207L34.9513 69.1307L39.1416 65.0408L44.9906 59.2813L50.8397 53.5217L60.1982 44.3648L69.5567 35.2076L74.431 30.4142L79.3052 25.6211L83.1155 21.8822L86.9257 18.1436L88.2724 17.0704L89.6191 15.9971L90.9322 15.307L92.2453 14.6167L93.496 14.146L94.7467 13.6751L96.8331 13.2724L98.9195 12.8698H100.682H102.445L104.385 13.2652L106.326 13.6607L107.73 14.2209L109.135 14.7811L110.39 15.4925L111.644 16.2038L112.534 16.8602L113.425 17.5167L114.742 18.8493L116.059 20.1821L116.862 21.3521L117.665 22.522L118.388 24.082L119.111 25.6419L119.555 27.1044L119.998 28.5669L120.123 30.4193L120.249 32.2718L120.132 34.1242L120.015 35.9767L119.562 37.4391L119.11 38.9016L118.641 39.9741L118.171 41.0465L117.561 42.0215L116.951 42.9965L115.845 44.3614L114.739 45.7264L105.508 54.7937L96.2778 63.8609L91.4036 68.6383L86.5296 73.4157L81.7476 78.1072L76.9656 82.7988L66.9539 92.6343L56.9424 102.47L56.4324 103.445L55.9224 104.42L55.9226 106.175L55.9229 107.93L56.5381 109.12L57.153 110.31L58.115 111.167L59.0768 112.025L60.1781 112.463L61.2795 112.902H62.5351H63.7905L64.8319 112.513L65.8732 112.123L66.545 111.627L67.2171 111.132L74.2309 104.266L81.2445 97.4L88.0681 90.6727L94.8918 83.9454L99.674 79.2554L104.456 74.5653L113.62 65.5892L122.783 56.613L124.343 55.1991L125.903 53.7849L127.206 52.918L128.509 52.0511L129.804 51.4639L131.098 50.8768L132.985 50.3538L134.871 49.8308L138.088 49.8289L141.305 49.8268L142.963 50.2791L144.62 50.7315L145.952 51.2982L147.284 51.8648L148.974 52.9605L150.664 54.0562L152.419 55.8408L154.173 57.6254L154.915 58.7452L155.658 59.8653L156.304 61.1805L156.95 62.496L157.511 64.3484L158.071 66.2009L158.067 69.4183L158.063 72.6357L157.551 74.3906L157.039 76.1456L156.531 77.2746L156.024 78.4036L155.117 79.8095L154.211 81.2155L148.635 86.7763L143.06 92.3374L133.806 101.401L124.552 110.465L118.696 116.227L112.84 121.988L107.186 127.535L101.532 133.082L96.9499 137.58L92.3681 142.078L87.9154 146.453L83.4629 150.829L82.5304 152.221L81.5978 153.613L80.9809 155.229L80.3641 156.845L80.1541 158.321L79.9443 159.798L80.0669 161.737L80.1894 163.676L80.7372 165.266L81.2851 166.856L82.0172 168.202L82.7491 169.548L90.3857 177.129L98.0222 184.709L98.9479 185.451L99.8736 186.192L100.954 186.596L102.034 187H103.189H104.344L105.472 186.581L106.601 186.163L107.407 185.613L108.213 185.062L108.828 184.134L109.443 183.205L109.752 182.143L110.061 181.081L109.965 179.893L109.87 178.705L109.34 177.637L108.81 176.568L101.125 168.925L93.4404 161.281V160.543V159.804L96.9986 156.287L100.557 152.771L108.939 144.585L117.321 136.399L122.683 131.134L128.044 125.869L134.424 119.548L140.803 113.227L141.018 113.094L141.232 112.961L146.829 107.423L152.425 101.885L157.964 96.425L163.502 90.9652L164.669 89.5027L165.835 88.0403L166.64 86.7728L167.446 85.5053L168.165 84.1211L168.884 82.737L169.561 80.9606L170.239 79.1842L170.72 77.2748L171.201 75.3656L171.437 73.7423L171.672 72.1189L171.569 68.2824L171.467 64.4459L170.951 62.3985L170.435 60.351L169.846 58.6965L169.258 57.0419L168.319 55.1675L167.381 53.293L166.441 51.8496L165.501 50.4063L164.815 49.5288L164.13 48.6513L163.148 47.5833L162.167 46.5155L160.705 45.1724L159.242 43.8291L157.293 42.4745L155.343 41.1198L153.003 39.9762L150.664 38.8324L148.909 38.2197L147.154 37.6068L144.815 37.0913L142.475 36.5757L138.029 36.5687L133.584 36.5616L133.714 34.1242L133.845 31.6868L133.617 29.1518L133.389 26.6169L133.112 25.4115L132.836 24.2062L132.032 21.804L131.229 19.4021L130.249 17.5497L129.27 15.6972L128.134 14.0436L126.999 12.3901L125.673 10.922L124.347 9.45386L122.883 8.13764L121.418 6.82143L119.859 5.73745L118.299 4.65348L116.68 3.76762L115.06 2.88156L113.463 2.21604L111.865 1.55053L110.091 0.980556L108.318 0.410585L106.318 0.20545L104.317 0.00012207L100.975 0.0317117L97.6323 0.0634948L95.4876 0.199018ZM99.0945 25.8155L98.0222 26.054L97.2384 26.4629L96.4547 26.8716L93.913 29.3767L91.3712 31.8818L86.1135 37.0491L80.856 42.2165L72.9685 49.9188L65.0812 57.6211L60.3977 62.2015L55.7139 66.7819L50.4498 71.9409L45.1856 77.0999L41.7403 80.5501L38.295 84.0004L36.9544 85.8253L35.614 87.6503L34.9975 88.6295L34.381 89.609L33.5731 91.3337L32.7649 93.0583L32.2044 94.7167L31.6439 96.3751L31.1196 98.8375L30.5951 101.3L30.5842 105.102L30.5733 108.905L31.0262 111.05L31.4789 113.195L32.0664 115.047L32.6538 116.9L33.5703 118.849L34.4869 120.799L35.4452 122.262L36.4034 123.724L37.2709 124.894L38.1383 126.064L40.1997 128.112L42.2611 130.159L44.1133 131.468L45.9655 132.776L48.0452 133.86L50.1248 134.944L52.1396 135.7L54.1542 136.456L56.4938 137.007L58.8334 137.557L63.6102 137.556L68.3869 137.554L70.4341 137.113L72.4813 136.672L74.5284 135.976L76.5756 135.281L78.4044 134.409L80.2332 133.537L81.2315 132.932L82.2297 132.328L83.5945 131.31L84.9593 130.292L86.1291 129.273L87.2989 128.255L95.9659 119.75L104.633 111.245L110.491 105.492L116.349 99.7404L120.931 95.2525L125.513 90.7645L130.29 86.0895L135.066 81.4144L139.317 77.22L143.568 73.0257L144.157 71.797L144.747 70.5681L144.764 69.3596L144.782 68.1508L144.429 67.0783L144.076 66.0059L143.488 65.1791L142.899 64.3523L141.907 63.677L140.915 63.002L139.998 62.7767L139.08 62.5513L137.561 62.6243L136.041 62.697L135.066 63.1695L134.091 63.6419L132.239 65.3998L130.387 67.1579L126.096 71.3592L121.806 75.5606L110.015 87.1628L98.2246 98.765L94.3215 102.567L90.4184 106.37L84.8618 111.848L79.3052 117.326L77.9404 118.583L76.5756 119.84L75.5033 120.642L74.431 121.444L73.141 122.149L71.8511 122.854L70.159 123.426L68.4667 123.998L66.8759 124.231L65.2852 124.463L62.6443 124.346L60.0033 124.229L58.346 123.734L56.6888 123.238L55.324 122.619L53.9592 122L52.6919 121.17L51.4246 120.341L50.2217 119.252L49.0185 118.162L47.9169 116.698L46.8154 115.234L46.0628 113.727L45.31 112.22L45.01 111.304L44.7097 110.387L44.3141 108.446L43.9183 106.504L43.9199 105.072L43.9214 103.64L44.4026 101.327L44.8836 99.0144L45.8407 97.0108L46.7976 95.0072L47.6356 93.8636L48.4736 92.7201L51.6063 89.5876L54.7391 86.4548L59.7108 81.615L64.6825 76.775L72.9687 68.6662L81.2549 60.5573L86.6165 55.2784L91.9782 49.9995L96.7477 45.328L101.517 40.6565L103.786 38.4141L106.054 36.1717L106.62 35.0017L107.186 33.8317L107.182 32.1743L107.179 30.5168L106.743 29.6245L106.306 28.7324L105.64 27.9534L104.973 27.1746L103.837 26.5715L102.701 25.9684L101.545 25.7564L100.388 25.5444L100.277 25.5608L100.167 25.5772L99.0945 25.8155Z" fill="black"/>
</svg>
