<?xml version="1.0" standalone="no"?>
<!DOCTYPE svg PUBLIC "-//W3C//DTD SVG 20010904//EN"
 "http://www.w3.org/TR/2001/REC-SVG-20010904/DTD/svg10.dtd">
<svg version="1.0" xmlns="http://www.w3.org/2000/svg"
 width="512.000000pt" height="364.000000pt" viewBox="120 60 280 230"
 preserveAspectRatio="xMidYMid meet">

<g transform="translate(0.000000,364.000000) scale(0.100000,-0.100000)"
fill="#EA4B71" stroke="none">
<path d="M3195 2728 c-22 -13 -53 -44 -70 -70 l-30 -47 -110 -1 c-136 -2 -160
-6 -208 -33 -47 -26 -83 -85 -97 -157 -6 -29 -16 -60 -23 -68 -18 -23 -72 -42
-117 -42 -35 0 -41 4 -54 33 -7 17 -29 46 -47 63 -97 90 -238 62 -300 -58 -19
-37 -21 -38 -74 -38 -47 0 -55 3 -61 23 -21 67 -105 127 -179 127 -50 0 -119
-34 -150 -74 -72 -94 -37 -239 69 -287 91 -41 186 -12 241 73 30 46 31 47 85
47 55 1 55 1 78 -43 17 -31 38 -51 72 -70 93 -51 198 -24 253 66 30 48 30 48
84 48 30 0 63 -5 74 -10 25 -14 45 -55 53 -112 13 -89 85 -155 183 -166 24 -2
43 -10 43 -16 0 -22 50 -81 88 -103 87 -53 220 -13 262 80 49 108 -7 236 -118
267 -46 12 -58 12 -104 0 -49 -14 -94 -53 -119 -102 -19 -38 -23 -40 -56 -35
-47 8 -81 41 -89 86 -10 62 -25 100 -49 129 l-24 28 25 29 c24 28 44 82 44
121 0 31 41 87 70 95 14 4 77 7 140 8 l115 0 21 -42 c11 -24 39 -55 63 -72 37
-26 52 -30 106 -30 54 0 70 4 107 30 54 38 80 89 80 156 -1 62 -26 113 -76
153 -51 42 -142 48 -201 14z m156 -96 c26 -24 32 -36 32 -72 0 -86 -95 -130
-161 -75 -36 30 -47 66 -32 109 22 66 107 87 161 38z m-1473 -278 c59 -41 63
-114 10 -159 -41 -34 -88 -33 -129 3 -26 24 -32 36 -32 72 0 36 6 48 32 72 36
32 84 37 119 12z m482 1 c91 -47 53 -185 -50 -185 -34 0 -47 6 -71 31 -79 85
17 208 121 154z m779 -289 c90 -47 53 -186 -49 -186 -104 0 -139 138 -46 184
39 19 60 20 95 2z"/>
<path d="M2475 1366 c-48 -22 -77 -60 -82 -110 -5 -42 -3 -48 29 -80 l35 -35
-24 -16 c-33 -22 -63 -74 -63 -111 0 -39 35 -92 77 -116 41 -25 118 -33 170
-19 122 33 160 164 69 237 l-32 26 33 33 c38 38 44 85 18 135 -31 61 -153 90
-230 56z m127 -73 c22 -20 23 -70 1 -95 -20 -22 -70 -23 -95 -1 -22 20 -23 70
-1 95 20 22 70 23 95 1z m8 -213 c11 -11 21 -28 21 -37 4 -65 -18 -93 -76 -93
-42 0 -65 15 -78 53 -8 22 9 68 30 85 26 19 80 15 103 -8z"/>
<path d="M1887 1264 c-4 -4 -7 -92 -7 -196 l0 -188 49 0 49 0 4 130 c3 119 5
131 26 152 31 32 97 31 123 -1 16 -20 19 -41 19 -152 l0 -129 50 0 50 0 0 140
c0 161 -10 198 -62 230 -48 29 -125 27 -171 -4 l-36 -25 -3 22 c-2 18 -11 23
-43 25 -23 2 -44 0 -48 -4z"/>
<path d="M2860 1076 l0 -196 50 0 50 0 0 130 c0 116 2 132 20 150 43 43 110
34 137 -20 8 -16 13 -69 13 -142 l0 -118 51 0 51 0 -4 143 c-4 159 -15 193
-71 227 -48 30 -127 27 -165 -5 -37 -31 -40 -31 -44 -2 -2 18 -10 23 -45 25
l-43 3 0 -195z"/>
</g>
</svg>
