<svg width="187" height="169" viewBox="0 0 187 169" fill="none" xmlns="http://www.w3.org/2000/svg">
<circle cx="70.9331" cy="47.6072" r="4.16551" fill="url(#paint0_linear_8624_18092)"/>
<path d="M134.823 0.0412673C137.627 -0.143928 140.187 0.322281 141.775 0.914314C142.699 1.25874 143.169 2.2864 142.824 3.21021C142.48 4.13395 141.452 4.60429 140.528 4.26002C139.439 3.85388 137.387 3.45109 135.06 3.60474C132.749 3.75739 130.307 4.44726 128.288 6.07252C125.109 8.63231 122.46 12.0395 120.667 14.7122C140.813 23.6177 156.177 42.0404 161.619 64.595C166.768 61.6304 173.142 61.3459 178.458 64.4153C186.57 69.0985 189.149 79.8172 184.22 88.3557C179.679 96.2202 170.352 99.4917 162.569 96.3001C158.01 121.936 140.785 142.912 117.944 151.85V169.001H100.687V156.097C98.2424 156.365 95.7601 156.504 93.247 156.504C90.9381 156.504 88.6553 156.386 86.4033 156.159V169.001H69.1465V152.081C46.0346 143.287 28.5613 122.205 23.9394 96.384C16.2002 99.4307 7.00128 96.1488 2.50192 88.3557C-2.42759 79.8172 0.152103 69.0985 8.26364 64.4153C13.5109 61.3859 19.7873 61.6254 24.9004 64.4827C30.4071 41.8106 45.9455 23.3289 66.2802 14.5149C64.4913 11.8955 61.9008 8.62759 58.8095 6.15455C56.7909 4.53962 54.348 3.85231 52.0351 3.70045C49.7054 3.54754 47.6513 3.94784 46.5605 4.35181C45.636 4.69423 44.609 4.22261 44.2666 3.2981C43.9242 2.37366 44.396 1.34671 45.3203 1.00416C46.9073 0.41637 49.4659 -0.0469505 52.2685 0.13697C55.088 0.322027 58.2982 1.17306 61.04 3.36646C64.7513 6.33557 67.7423 10.2479 69.666 13.1536C77.0394 10.4165 84.9769 8.92604 93.247 8.92603C101.693 8.92604 109.793 10.4807 117.299 13.3303C119.216 10.3886 122.257 6.34532 126.048 3.29224C128.79 1.08442 132.002 0.227742 134.823 0.0412673ZM68.5517 38.0852C62.6362 38.0854 57.8408 42.8816 57.8408 48.7971C57.841 54.7125 62.6363 59.5079 68.5517 59.5081C74.4673 59.5081 79.2635 54.7127 79.2636 48.7971C79.2636 42.8814 74.4674 38.0852 68.5517 38.0852ZM117.348 38.0852C111.432 38.0853 106.637 42.8815 106.637 48.7971C106.637 54.7126 111.432 59.5079 117.348 59.5081C123.263 59.5081 128.059 54.7127 128.06 48.7971C128.06 42.8814 123.263 38.0852 117.348 38.0852Z" fill="url(#paint1_linear_8624_18092)"/>
<circle cx="119.134" cy="47.6072" r="4.16551" fill="url(#paint2_linear_8624_18092)"/>
<defs>
<linearGradient id="paint0_linear_8624_18092" x1="68.4184" y1="43.5895" x2="74.4889" y2="51.1213" gradientUnits="userSpaceOnUse">
<stop stop-color="#ED4444"/>
<stop offset="1" stop-color="#B02727"/>
</linearGradient>
<linearGradient id="paint1_linear_8624_18092" x1="37" y1="2.9999" x2="157.001" y2="167.5" gradientUnits="userSpaceOnUse">
<stop stop-color="#ED4444"/>
<stop offset="1" stop-color="#B02727"/>
</linearGradient>
<linearGradient id="paint2_linear_8624_18092" x1="116.62" y1="43.5895" x2="122.69" y2="51.1213" gradientUnits="userSpaceOnUse">
<stop stop-color="#ED4444"/>
<stop offset="1" stop-color="#B02727"/>
</linearGradient>
</defs>
</svg>
