<svg width="134" height="193" viewBox="0 0 134 193" fill="none" xmlns="http://www.w3.org/2000/svg">
<path fill-rule="evenodd" clip-rule="evenodd" d="M67.3894 0C67.3894 0 66.9607 10.2588 65.1562 16.5097C62.9588 24.1215 60.6276 28.1517 56.1524 34.6894C50.3246 43.2031 45.4789 46.8569 37.5062 53.4053C30.7679 58.9398 19.1213 66.0764 19.1213 66.0764L3.01707 75.2998L3.81245 76.0187L4.60687 76.7367L35.8554 94.6891L67.105 112.641L88.3066 99.9481C88.3066 99.9481 96.6487 94.4053 101.603 90.3454C109.553 83.8302 114.551 80.3171 120.23 71.7495C125.24 64.1904 127.408 59.2723 129.452 50.4366C131.575 41.2598 130.398 26.3359 130.398 26.3359L98.8944 13.1675L67.3894 0ZM4.77525 97.7507L1.0731 99.9472L0.904737 100.545L0.736366 101.143L33.4209 120.028L66.1054 138.914H66.9995H67.8936L95.0433 123.191L122.194 107.467L127.431 104.558L132.668 101.649L133.27 101.047L133.872 100.445L129.544 97.9074L125.216 95.3713H124.255H123.294L99.2689 109.243L75.2437 123.115L71.857 125.205L68.4703 127.296L67.3333 127.299L66.1954 127.303L38.4593 111.337L10.7232 95.3713L9.59984 95.4622L8.47738 95.5541L4.77525 97.7507ZM4.79943 124.579L0.153857 127.527L0.445108 127.77L0.736366 128.012L33.8728 147.086L67.0092 166.159L100.307 146.977L133.605 127.795L133.203 127.142L132.799 126.49L128.462 124.066L124.125 121.642L95.8367 138.019L67.5481 154.397H66.9917H66.4344L38.0752 137.947L9.71595 121.497L9.58048 121.565L9.44501 121.632L4.79943 124.579ZM4.72203 151.4L0 154.185L9.07635 159.523L18.1537 164.861L42.6114 178.931L67.0692 193L94.8633 176.982L122.657 160.964L128.322 157.549L133.986 154.134L129.066 151.292L124.145 148.451L95.5919 164.926L67.0401 181.401L39.2508 165.372L11.4625 149.344L10.4533 148.979L9.44501 148.615L4.72203 151.4Z" fill="#EED285"/>
</svg>
