<svg width="857" height="200" viewBox="0 0 857 200" fill="none" xmlns="http://www.w3.org/2000/svg">
<path fill-rule="evenodd" clip-rule="evenodd" d="M149.479 67.9822C152.62 57.2876 162.508 49.4792 174.219 49.4792C188.457 49.4792 200 61.0218 200 75.2604C200 89.499 188.457 101.042 174.219 101.042C162.508 101.042 152.62 93.2332 149.479 82.5387C147.016 90.9251 140.404 97.5367 132.018 100C142.712 103.141 150.521 113.029 150.521 124.74C150.521 138.978 138.978 150.521 124.74 150.521C113.029 150.521 103.141 142.712 100 132.018C97.5367 140.404 90.9251 147.016 82.5387 149.479C93.2332 152.62 101.042 162.508 101.042 174.219C101.042 188.457 89.499 200 75.2604 200C61.0218 200 49.4792 188.457 49.4792 174.219C49.4792 162.508 57.2876 152.62 67.9822 149.479C59.5957 147.016 52.9841 140.404 50.5208 132.018C47.3796 142.712 37.4923 150.521 25.7812 150.521C11.5427 150.521 0 138.978 0 124.74C0 113.029 7.80844 103.141 18.503 100C7.80844 96.8588 0 86.9715 0 75.2604C0 63.5494 7.80844 53.662 18.503 50.5208C7.80844 47.3796 0 37.4923 0 25.7812C0 11.5427 11.5427 0 25.7812 0C37.4923 0 47.3796 7.80844 50.5208 18.503C53.662 7.80844 63.5494 0 75.2604 0C86.9715 0 96.8588 7.80844 100 18.503C103.141 7.80844 113.029 0 124.74 0C138.978 0 150.521 11.5427 150.521 25.7812C150.521 37.4923 142.712 47.3796 132.018 50.5208C140.404 52.9841 147.016 59.5957 149.479 67.9822ZM117.461 100C106.767 96.8588 98.9583 86.9715 98.9583 75.2604C98.9583 63.5494 106.767 53.662 117.461 50.5208C109.075 48.0576 102.463 41.4459 100 33.0595C96.8588 43.7541 86.9715 51.5625 75.2604 51.5625C63.5494 51.5625 53.662 43.7541 50.5208 33.0595C48.0576 41.4459 41.4459 48.0576 33.0595 50.5208C43.7541 53.662 51.5625 63.5494 51.5625 75.2604C51.5625 86.9715 43.7541 96.8588 33.0595 100C41.4459 102.463 48.0576 109.075 50.5208 117.461C53.662 106.767 63.5494 98.9583 75.2604 98.9583C86.9715 98.9583 96.8588 106.767 100 117.461C102.463 109.075 109.075 102.463 117.461 100ZM200 174.219C200 188.457 188.457 200 174.219 200C159.98 200 148.438 188.457 148.438 174.219C148.438 159.98 159.98 148.438 174.219 148.438C188.457 148.438 200 159.98 200 174.219ZM300.134 150V50.0176H320.172V132.943H361.565V150H300.134ZM681.509 50.0176V150H714.444C725.306 150 734.644 147.943 742.455 143.829C750.314 139.669 756.253 133.845 760.275 126.356C764.342 118.822 766.376 110.086 766.376 100.147C766.376 90.1169 764.342 81.3343 760.275 73.7998C756.253 66.2653 750.314 60.418 742.455 56.2578C734.644 52.0977 725.306 50.0176 714.444 50.0176H681.509ZM731.362 129.477C726.554 132.158 720.869 133.498 714.305 133.498H701.062V66.5889H714.236C720.799 66.5889 726.485 67.9525 731.292 70.6797C736.1 73.4069 739.798 77.2897 742.386 82.3281C745.021 87.3665 746.338 93.3063 746.338 100.147C746.338 106.896 745.044 112.79 742.455 117.828C739.867 122.867 736.169 126.749 731.362 129.477ZM780.388 50.0176V150H825.803C831.997 150 837.405 148.775 842.027 146.325C846.65 143.829 850.209 140.432 852.705 136.133C855.248 131.788 856.519 126.934 856.519 121.572C856.519 117.458 855.687 113.737 854.023 110.409C852.405 107.035 850.047 104.192 846.95 101.881C843.9 99.5697 840.225 97.9287 835.926 96.958V96.126C839.162 95.0628 841.935 93.5374 844.246 91.5498C846.557 89.516 848.314 87.1123 849.516 84.3389C850.764 81.5192 851.388 78.4453 851.388 75.1172C851.388 70.3099 850.186 66.0111 847.782 62.2207C845.425 58.3841 842.051 55.4027 837.659 53.2764C833.314 51.1038 828.183 50.0176 822.267 50.0176H780.388ZM828.646 132.943C826.057 134.099 823.053 134.677 819.632 134.677H799.871V105.417H819.771C823.145 105.417 826.103 105.995 828.646 107.15C831.234 108.26 833.222 109.878 834.609 112.004C835.995 114.084 836.689 116.603 836.689 119.562C836.689 122.751 835.995 125.478 834.609 127.743C833.222 130.008 831.234 131.742 828.646 132.943ZM825.248 89.7471C822.937 90.764 820.21 91.2725 817.067 91.2725H799.871V65.2021H816.859C820.048 65.2021 822.821 65.7106 825.179 66.7275C827.536 67.7445 829.339 69.2236 830.587 71.165C831.881 73.1064 832.528 75.4408 832.528 78.168C832.528 80.8952 831.904 83.2526 830.656 85.2402C829.408 87.1816 827.606 88.6839 825.248 89.7471ZM634.217 151.595C626.867 151.595 620.396 150 614.802 146.811C609.256 143.621 604.957 139.114 601.906 133.29C598.901 127.42 597.399 120.717 597.399 113.183C597.399 105.509 598.925 98.7607 601.975 92.9365C605.072 87.0661 609.394 82.5361 614.941 79.3467C620.534 76.111 626.959 74.4932 634.217 74.4932C641.289 74.4932 647.46 76.0417 652.729 79.1387C657.999 82.1895 662.043 86.5114 664.863 92.1045C667.729 97.6514 669.162 104.03 669.162 111.241C669.162 112.258 669.116 113.391 669.023 114.639C668.977 115.887 668.885 117.089 668.746 118.244H615.843C616.305 122.358 617.368 125.802 619.032 128.575C620.742 131.349 622.938 133.406 625.619 134.746C628.3 136.04 631.374 136.688 634.841 136.688C638.723 136.688 642.005 136.017 644.686 134.677C647.367 133.29 649.216 131.441 650.233 129.13H668.607C667.821 133.614 665.834 137.566 662.644 140.986C659.501 144.361 655.48 146.972 650.58 148.821C645.68 150.67 640.226 151.595 634.217 151.595ZM650.58 105.278C650.349 101.765 649.517 98.7145 648.084 96.126C646.697 93.5374 644.802 91.5729 642.398 90.2324C639.995 88.8457 637.221 88.1523 634.078 88.1523C631.073 88.1523 628.323 88.7301 625.827 89.8857C623.331 91.0413 621.228 92.9134 619.517 95.502C617.807 98.0443 616.628 101.303 615.981 105.278H650.58ZM538.666 147.504C544.398 150.277 550.546 151.664 557.109 151.664C563.766 151.664 569.613 150.277 574.651 147.504C579.69 144.73 583.642 141.056 586.508 136.479C589.42 131.903 591.176 126.842 591.777 121.295H573.542C573.126 124.022 572.202 126.518 570.769 128.783C569.382 131.002 567.487 132.805 565.083 134.191C562.726 135.532 560.045 136.202 557.04 136.202C553.573 136.202 550.407 135.324 547.541 133.567C544.721 131.765 542.479 129.153 540.815 125.732C539.151 122.266 538.319 118.082 538.319 113.183C538.319 108.56 539.105 104.493 540.677 100.979C542.248 97.4665 544.444 94.7393 547.264 92.7979C550.13 90.8102 553.435 89.8164 557.179 89.8164C560.276 89.8164 562.98 90.5098 565.291 91.8965C567.648 93.2832 569.497 95.1784 570.838 97.582C572.178 99.9395 573.08 102.551 573.542 105.417H591.708C591.153 99.6852 589.397 94.4619 586.438 89.7471C583.526 85.0322 579.551 81.3112 574.513 78.584C569.474 75.8568 563.65 74.4932 557.04 74.4932C550.06 74.4932 543.704 76.0417 537.973 79.1387C532.287 82.2357 527.78 86.7425 524.452 92.6592C521.124 98.5296 519.46 105.509 519.46 113.599C519.46 121.919 521.216 128.945 524.729 134.677C528.289 140.409 532.934 144.684 538.666 147.504ZM443.74 150V76.0879H462.599V87.3203H463.292C465.372 83.2526 468.285 80.1094 472.029 77.8906C475.773 75.6256 480.187 74.4932 485.272 74.4932C490.634 74.4932 495.21 75.6488 499 77.96C502.791 80.2712 505.68 83.6224 507.667 88.0137C509.655 92.3587 510.649 97.6514 510.649 103.892V150H491.789V106.665C491.789 101.673 490.588 97.8131 488.184 95.0859C485.78 92.3587 482.452 90.9951 478.2 90.9951C475.01 90.9951 472.237 91.7116 469.879 93.1445C467.568 94.5775 465.765 96.5651 464.471 99.1074C463.223 101.604 462.599 104.446 462.599 107.636V150H443.74ZM376.756 148.544C380.222 150.347 384.313 151.248 389.028 151.248C394.113 151.248 398.619 150.208 402.549 148.128C406.524 146.048 409.575 143.066 411.701 139.184H412.325V150H430.63V99.9395C430.63 94.6237 429.335 90.0706 426.747 86.2803C424.204 82.4437 420.622 79.5316 416 77.5439C411.377 75.5101 405.923 74.4932 399.636 74.4932C393.396 74.4932 387.988 75.4408 383.412 77.3359C378.836 79.2311 375.207 81.9814 372.526 85.5869C369.891 89.1462 368.343 93.3525 367.881 98.2061H386.047C386.324 96.3109 386.994 94.693 388.057 93.3525C389.167 91.9658 390.669 90.9258 392.564 90.2324C394.459 89.4928 396.678 89.123 399.22 89.123C401.948 89.123 404.282 89.5622 406.223 90.4404C408.211 91.2725 409.713 92.4743 410.73 94.0459C411.793 95.6175 412.325 97.4202 412.325 99.4541C412.325 100.656 412.094 101.627 411.632 102.366C411.169 103.06 410.499 103.614 409.621 104.03C408.789 104.4 407.656 104.677 406.223 104.862L389.999 107.428C382.51 108.63 376.686 111.01 372.526 114.569C368.366 118.129 366.286 123.213 366.286 129.823C366.286 133.983 367.164 137.681 368.921 140.917C370.723 144.153 373.335 146.695 376.756 148.544ZM404.351 134.33C401.763 135.994 398.712 136.826 395.199 136.826C393.073 136.826 391.201 136.456 389.583 135.717C387.965 134.977 386.74 133.937 385.908 132.597C385.076 131.256 384.66 129.685 384.66 127.882C384.66 125.293 385.446 123.306 387.017 121.919C388.635 120.486 390.692 119.562 393.188 119.146L406.223 117.065C407.61 116.834 408.789 116.58 409.759 116.303C410.776 115.979 411.632 115.586 412.325 115.124V118.175C412.325 121.503 411.632 124.6 410.245 127.466C408.904 130.332 406.94 132.62 404.351 134.33Z" fill="black"/>
</svg>
