<svg width="1441" height="1627" viewBox="0 0 1441 1627" fill="none" xmlns="http://www.w3.org/2000/svg">
<g clip-path="url(#clip0_6099_10331)">
<path d="M907.416 1626.44C819.951 1626.44 748.813 1550.68 748.813 1457.56V168.88C748.813 145.912 733.733 129.907 720.213 129.907C706.693 129.907 691.612 145.912 691.612 168.88V1457.56C691.612 1550.68 620.475 1626.44 533.01 1626.44C445.544 1626.44 374.407 1550.68 374.407 1457.56V449.48C374.407 426.512 359.326 410.507 345.806 410.507C332.286 410.507 317.206 426.512 317.206 449.48V1083.43C317.206 1176.55 246.068 1252.31 158.603 1252.31C71.1373 1252.31 0 1176.55 0 1083.43V776.846C0 683.729 75.8174 607.967 169.003 607.967C175.347 607.967 181.379 608.902 187.203 610.565V449.48C187.203 356.362 258.341 280.6 345.806 280.6C433.272 280.6 504.409 356.362 504.409 449.48V1457.56C504.409 1480.53 519.489 1496.53 533.01 1496.53C546.53 1496.53 561.61 1480.53 561.61 1457.56V168.88C561.61 75.762 632.747 0 720.213 0C807.678 0 878.816 75.762 878.816 168.88V1457.56C878.816 1480.53 893.896 1496.53 907.416 1496.53C920.937 1496.53 936.017 1480.53 936.017 1457.56V449.48C936.017 356.362 1007.15 280.6 1094.62 280.6C1182.09 280.6 1253.22 356.362 1253.22 449.48V610.565C1259.05 608.902 1265.08 607.967 1271.42 607.967C1364.61 607.967 1440.43 683.729 1440.43 776.846V1083.43C1440.43 1176.55 1369.29 1252.31 1281.82 1252.31C1194.36 1252.31 1123.22 1176.55 1123.22 1083.43V449.48C1123.22 426.512 1108.14 410.507 1094.62 410.507C1081.1 410.507 1066.02 426.512 1066.02 449.48V1457.56C1066.02 1550.68 994.882 1626.44 907.416 1626.44ZM1253.22 735.276V1083.43C1253.22 1106.4 1268.3 1122.4 1281.82 1122.4C1295.34 1122.4 1310.42 1106.4 1310.42 1083.43V776.846C1310.42 755.749 1292.54 737.874 1271.42 737.874C1265.08 737.874 1259.05 736.939 1253.22 735.276ZM187.203 735.276C181.379 736.939 175.347 737.874 169.003 737.874C147.891 737.874 130.002 755.749 130.002 776.846V1083.43C130.002 1106.4 145.083 1122.4 158.603 1122.4C172.123 1122.4 187.203 1106.4 187.203 1083.43V735.276Z" fill="black"/>
</g>
<defs>
<clipPath id="clip0_6099_10331">
<rect width="1440.43" height="1626.44" fill="white"/>
</clipPath>
</defs>
</svg>
